<svg xmlns="http://www.w3.org/2000/svg" xmlns:xlink="http://www.w3.org/1999/xlink" width="500" zoomAndPan="magnify" viewBox="0 0 375 374.999991" height="500" preserveAspectRatio="xMidYMid meet" version="1.0"><defs><filter x="0%" y="0%" width="100%" height="100%" id="31600782f2"><feColorMatrix values="0 0 0 0 1 0 0 0 0 1 0 0 0 0 1 0 0 0 1 0" color-interpolation-filters="sRGB"/></filter><g/><clipPath id="75f49a09c2"><path d="M 102.75 69.121094 L 249 69.121094 L 249 230 L 102.75 230 Z M 102.75 69.121094 " clip-rule="nonzero"/></clipPath><clipPath id="7c7a0a44c0"><path d="M 102.75 130 L 162 130 L 162 216 L 102.75 216 Z M 102.75 130 " clip-rule="nonzero"/></clipPath><clipPath id="8540ce957e"><path d="M 103 125 L 272.25 125 L 272.25 239.371094 L 103 239.371094 Z M 103 125 " clip-rule="nonzero"/></clipPath><mask id="8c90a89307"><g filter="url(#31600782f2)"><rect x="-37.5" width="450" fill="#000000" y="-37.499999" height="449.999989" fill-opacity="0.3"/></g></mask><clipPath id="4fdda574fd"><path d="M 0.160156 0.558594 L 125.199219 0.558594 L 125.199219 88.640625 L 0.160156 88.640625 Z M 0.160156 0.558594 " clip-rule="nonzero"/></clipPath><clipPath id="6ba95d0350"><rect x="0" width="126" y="0" height="89"/></clipPath><mask id="5567966043"><g filter="url(#31600782f2)"><rect x="-37.5" width="450" fill="#000000" y="-37.499999" height="449.999989" fill-opacity="0.8"/></g></mask><clipPath id="2aa33a311d"><path d="M 0.480469 0.078125 L 1.679688 0.078125 L 1.679688 30 L 0.480469 30 Z M 0.480469 0.078125 " clip-rule="nonzero"/></clipPath><clipPath id="e4f73ac1b6"><rect x="0" width="2" y="0" height="31"/></clipPath><mask id="49aaf34ecb"><g filter="url(#31600782f2)"><rect x="-37.5" width="450" fill="#000000" y="-37.499999" height="449.999989" fill-opacity="0.8"/></g></mask><clipPath id="e845d44c48"><path d="M 0.121094 0 L 4.679688 0 L 4.679688 22.558594 L 0.121094 22.558594 Z M 0.121094 0 " clip-rule="nonzero"/></clipPath><clipPath id="8ba3738fd6"><rect x="0" width="5" y="0" height="23"/></clipPath><mask id="81f576d35d"><g filter="url(#31600782f2)"><rect x="-37.5" width="450" fill="#000000" y="-37.499999" height="449.999989" fill-opacity="0.8"/></g></mask><clipPath id="c396113c40"><path d="M 0.121094 0.320312 L 107.640625 0.320312 L 107.640625 115 L 0.121094 115 Z M 0.121094 0.320312 " clip-rule="nonzero"/></clipPath><clipPath id="6f3ec6e491"><rect x="0" width="108" y="0" height="116"/></clipPath><mask id="10372778d0"><g filter="url(#31600782f2)"><rect x="-37.5" width="450" fill="#000000" y="-37.499999" height="449.999989" fill-opacity="0.4"/></g></mask><clipPath id="7e55627dca"><path d="M 0.480469 0.0390625 L 94.800781 0.0390625 L 94.800781 75.398438 L 0.480469 75.398438 Z M 0.480469 0.0390625 " clip-rule="nonzero"/></clipPath><clipPath id="a9829cdd1c"><rect x="0" width="95" y="0" height="76"/></clipPath><mask id="db3986fb1a"><g filter="url(#31600782f2)"><rect x="-37.5" width="450" fill="#000000" y="-37.499999" height="449.999989" fill-opacity="0.8"/></g></mask><clipPath id="bea92c7777"><path d="M 0.320312 0.558594 L 0.800781 0.558594 L 0.800781 1.519531 L 0.320312 1.519531 Z M 0.320312 0.558594 " clip-rule="nonzero"/></clipPath><clipPath id="5713f120ca"><rect x="0" width="1" y="0" height="2"/></clipPath><mask id="06eace8513"><g filter="url(#31600782f2)"><rect x="-37.5" width="450" fill="#000000" y="-37.499999" height="449.999989" fill-opacity="0.8"/></g></mask><clipPath id="0101ad861b"><path d="M 0.679688 0.199219 L 8 0.199219 L 8 19 L 0.679688 19 Z M 0.679688 0.199219 " clip-rule="nonzero"/></clipPath><clipPath id="7cb81110db"><rect x="0" width="9" y="0" height="20"/></clipPath><clipPath id="f31a7f3ae9"><path d="M 102.75 163 L 176 163 L 176 232 L 102.75 232 Z M 102.75 163 " clip-rule="nonzero"/></clipPath><mask id="abc7c0d083"><g filter="url(#31600782f2)"><rect x="-37.5" width="450" fill="#000000" y="-37.499999" height="449.999989" fill-opacity="0.8"/></g></mask><clipPath id="80222cddfa"><path d="M 0.75 0.679688 L 73.199219 0.679688 L 73.199219 68.359375 L 0.75 68.359375 Z M 0.75 0.679688 " clip-rule="nonzero"/></clipPath><clipPath id="ef9a52c88e"><rect x="0" width="74" y="0" height="69"/></clipPath><mask id="8504adfe79"><g filter="url(#31600782f2)"><rect x="-37.5" width="450" fill="#000000" y="-37.499999" height="449.999989" fill-opacity="0.3"/></g></mask><clipPath id="9f06730105"><path d="M 0.121094 0.28125 L 81 0.28125 L 81 68.679688 L 0.121094 68.679688 Z M 0.121094 0.28125 " clip-rule="nonzero"/></clipPath><clipPath id="9cd767002f"><rect x="0" width="82" y="0" height="69"/></clipPath><mask id="850792d62c"><g filter="url(#31600782f2)"><rect x="-37.5" width="450" fill="#000000" y="-37.499999" height="449.999989" fill-opacity="0.4"/></g></mask><clipPath id="dd622c58a6"><path d="M 0 0.71875 L 75.359375 0.71875 L 75.359375 63.839844 L 0 63.839844 Z M 0 0.71875 " clip-rule="nonzero"/></clipPath><clipPath id="357ddd8187"><rect x="0" width="76" y="0" height="64"/></clipPath><mask id="bd88eb92f3"><g filter="url(#31600782f2)"><rect x="-37.5" width="450" fill="#000000" y="-37.499999" height="449.999989" fill-opacity="0.3"/></g></mask><clipPath id="40c5f829d1"><path d="M 0.199219 0.679688 L 29 0.679688 L 29 66 L 0.199219 66 Z M 0.199219 0.679688 " clip-rule="nonzero"/></clipPath><clipPath id="121381ede8"><rect x="0" width="29" y="0" height="67"/></clipPath><mask id="47c5a99fde"><g filter="url(#31600782f2)"><rect x="-37.5" width="450" fill="#000000" y="-37.499999" height="449.999989" fill-opacity="0.5"/></g></mask><clipPath id="d0408667db"><path d="M 0.359375 0.121094 L 18 0.121094 L 18 36.839844 L 0.359375 36.839844 Z M 0.359375 0.121094 " clip-rule="nonzero"/></clipPath><clipPath id="ad47eebcfb"><rect x="0" width="19" y="0" height="37"/></clipPath><clipPath id="0d6378c95b"><path d="M 214 228 L 238 228 L 238 239.371094 L 214 239.371094 Z M 214 228 " clip-rule="nonzero"/></clipPath><clipPath id="72e9130b6b"><path d="M 213 186 L 272.25 186 L 272.25 234 L 213 234 Z M 213 186 " clip-rule="nonzero"/></clipPath><mask id="c35af5402f"><g filter="url(#31600782f2)"><rect x="-37.5" width="450" fill="#000000" y="-37.499999" height="449.999989" fill-opacity="0.4"/></g></mask><clipPath id="7867586244"><path d="M 0.121094 0.238281 L 59.25 0.238281 L 59.25 47 L 0.121094 47 Z M 0.121094 0.238281 " clip-rule="nonzero"/></clipPath><clipPath id="cc8fa3c22f"><rect x="0" width="60" y="0" height="48"/></clipPath><clipPath id="9128c35801"><path d="M 213 204 L 270 204 L 270 239.371094 L 213 239.371094 Z M 213 204 " clip-rule="nonzero"/></clipPath><mask id="9f88ac5936"><g filter="url(#31600782f2)"><rect x="-37.5" width="450" fill="#000000" y="-37.499999" height="449.999989" fill-opacity="0.8"/></g></mask><clipPath id="b3c4468ba2"><path d="M 0.121094 0.480469 L 57 0.480469 L 57 35.371094 L 0.121094 35.371094 Z M 0.121094 0.480469 " clip-rule="nonzero"/></clipPath><clipPath id="e6ba580a9d"><rect x="0" width="57" y="0" height="36"/></clipPath><mask id="0e7ab5d121"><g filter="url(#31600782f2)"><rect x="-37.5" width="450" fill="#000000" y="-37.499999" height="449.999989" fill-opacity="0.3"/></g></mask><clipPath id="8803b5441d"><path d="M 0.480469 0.839844 L 41.519531 0.839844 L 41.519531 15 L 0.480469 15 Z M 0.480469 0.839844 " clip-rule="nonzero"/></clipPath><clipPath id="768b2886a4"><rect x="0" width="42" y="0" height="15"/></clipPath><mask id="8da28630ee"><g filter="url(#31600782f2)"><rect x="-37.5" width="450" fill="#000000" y="-37.499999" height="449.999989" fill-opacity="0.5"/></g></mask><clipPath id="d9db10b050"><path d="M 1 0.199219 L 18 0.199219 L 18 7.878906 L 1 7.878906 Z M 1 0.199219 " clip-rule="nonzero"/></clipPath><clipPath id="56c5b02868"><rect x="0" width="19" y="0" height="8"/></clipPath><mask id="23dac34575"><g filter="url(#31600782f2)"><rect x="-37.5" width="450" fill="#000000" y="-37.499999" height="449.999989" fill-opacity="0.8"/></g></mask><clipPath id="6b81e987c2"><path d="M 1 0.398438 L 24.28125 0.398438 L 24.28125 43 L 1 43 Z M 1 0.398438 " clip-rule="nonzero"/></clipPath><clipPath id="389fab4abb"><rect x="0" width="25" y="0" height="44"/></clipPath></defs><g clip-path="url(#75f49a09c2)"><path fill="#ffffff" d="M 230.230469 202.378906 C 213.636719 204.667969 202 194.765625 205.234375 170.949219 C 208.425781 150.347656 202.445312 126.050781 201.34375 125.65625 C 201.011719 124.601562 199.777344 120.8125 199.722656 120.675781 C 199.65625 120.5 199.339844 119.65625 199.246094 119.410156 C 195.109375 107.8125 190.4375 103.441406 186.84375 102.242188 C 184.3125 101.398438 181.957031 102.066406 179.152344 103.726562 C 176.226562 105.46875 172.960938 109.117188 169.011719 115.71875 C 165.8125 121.097656 161.78125 130.667969 161.78125 130.667969 C 161.769531 130.695312 161.757812 130.722656 161.742188 130.75 C 161.578125 131.117188 161.414062 131.496094 161.253906 131.878906 C 159.933594 134.957031 158.558594 138.34375 157.101562 142.074219 C 142.4375 179.878906 157.507812 233.023438 120.496094 229.089844 C 85.890625 225.414062 110.800781 147.574219 125.503906 122.214844 C 140.207031 96.839844 169.367188 54.746094 198.386719 74.039062 C 227.410156 93.328125 243.378906 135.335938 246.988281 155.785156 C 251.179688 179.523438 245.816406 200.230469 230.230469 202.378906 Z M 230.230469 202.378906 " fill-opacity="1" fill-rule="evenodd"/></g><g clip-path="url(#7c7a0a44c0)"><path fill="#004aad" d="M 103.015625 200.203125 C 102.894531 200.53125 103.316406 209.460938 103.777344 212.25 C 104.242188 215.039062 105.984375 215.039062 105.984375 215.039062 C 105.984375 215.039062 116.003906 195.710938 128.703125 176.625 C 141.417969 157.554688 155.863281 146.242188 155.863281 146.242188 C 158.421875 137.71875 161.757812 130.75 161.757812 130.75 C 161.757812 130.75 117.894531 158.519531 103.015625 200.203125 Z M 103.015625 200.203125 " fill-opacity="1" fill-rule="evenodd"/></g><g clip-path="url(#8540ce957e)"><path fill="#ffffff" d="M 271.300781 197.875 C 267.679688 217.84375 258.671875 232.261719 241.488281 238.210938 C 238.4375 239.148438 235.988281 239.9375 230.652344 239.625 C 226.023438 239.355469 212.636719 236.039062 213.335938 221.492188 C 213.921875 205.660156 228.636719 204.574219 233.699219 205.417969 C 238.246094 206.179688 241.011719 207.308594 244.945312 208.425781 C 252.894531 210.683594 264.03125 211.285156 268.332031 198.3125 C 269.246094 195.5625 269.503906 192.335938 269.148438 188.875 C 267.976562 177.414062 260.179688 163.269531 247.53125 154.394531 C 237.0625 147.058594 223.300781 143.328125 207.25 147.75 C 165.976562 159.117188 150.183594 191.722656 145.515625 210.34375 C 140.847656 228.96875 124.566406 236.101562 112.503906 227.441406 C 77.546875 202.3125 153.179688 121.558594 217.8125 125.523438 C 257.769531 127.972656 276.746094 167.871094 271.300781 197.875 Z M 271.300781 197.875 " fill-opacity="1" fill-rule="evenodd"/></g><path fill="#004aad" d="M 198.199219 126.691406 C 198.199219 126.691406 226.1875 121.480469 244.222656 134.042969 C 244.222656 134.042969 249.152344 144.429688 250.171875 156.410156 C 250.171875 156.410156 232.53125 139.898438 202.566406 149.207031 C 202.566406 149.207031 201.316406 133.703125 198.199219 126.691406 " fill-opacity="1" fill-rule="evenodd"/><path fill="#ffffff" d="M 201.34375 125.671875 C 201.34375 125.671875 205.480469 138.535156 205.65625 149.359375 C 205.65625 149.359375 229.875 141.855469 247.027344 156.097656 C 247.027344 156.097656 243.871094 138.863281 239.089844 129.457031 C 239.105469 129.457031 220.796875 120.632812 201.34375 125.671875 " fill-opacity="1" fill-rule="evenodd"/><g mask="url(#8c90a89307)"><g transform="matrix(1, 0, 0, 1, 116, 70)"><g clip-path="url(#6ba95d0350)"><g clip-path="url(#4fdda574fd)"><path fill="#e3ebf2" d="M 125.171875 81.03125 C 125.171875 81.03125 124.410156 72.429688 118.652344 57.660156 C 116.800781 52.894531 114.417969 47.476562 111.382812 41.5 C 104.441406 27.847656 84.894531 0.824219 68.054688 0.824219 C 66.488281 0.824219 64.9375 1.054688 63.425781 1.558594 C 23.429688 14.859375 0.574219 80.679688 0.574219 80.679688 C -0.597656 85.292969 1.417969 88.316406 4.972656 88.316406 C 9.382812 88.316406 16.175781 83.660156 22.234375 71.558594 C 32.414062 51.179688 49.621094 12.285156 67.671875 12.285156 C 68.203125 12.285156 68.734375 12.3125 69.265625 12.382812 C 80.113281 13.769531 92.910156 26.007812 101.011719 35.890625 C 104.695312 40.390625 109.148438 48.167969 113.226562 56.007812 C 113.214844 56.007812 125.175781 81.03125 125.175781 81.03125 Z M 94.789062 21.164062 C 94.679688 21.351562 94.503906 21.449219 94.269531 21.449219 C 91.425781 21.449219 80.058594 7.945312 69.386719 7.726562 L 68.910156 7.726562 C 57.828125 7.726562 50.125 15.5 42.078125 26.648438 C 33.925781 37.960938 19.058594 74.253906 13.246094 75.382812 C 12.550781 75.519531 11.914062 75.585938 11.355469 75.585938 C 7.285156 75.585938 7 71.9375 10.523438 64.738281 C 10.523438 64.738281 24.871094 38.601562 36.757812 24.074219 C 46.257812 12.464844 56.34375 3.65625 68.3125 3.65625 C 69.195312 3.65625 70.09375 3.710938 71.007812 3.804688 C 80.34375 4.828125 96.300781 18.601562 94.789062 21.164062 Z M 94.789062 21.164062 " fill-opacity="1" fill-rule="nonzero"/></g></g></g></g><path fill="#e3ebf2" d="M 184.300781 73.667969 C 172.347656 73.667969 162.246094 82.476562 152.742188 94.089844 C 140.859375 108.613281 126.511719 134.75 126.511719 134.75 C 122.984375 141.953125 123.273438 145.601562 127.34375 145.601562 C 127.898438 145.601562 128.527344 145.53125 129.234375 145.398438 C 135.046875 144.253906 149.914062 107.972656 158.066406 96.660156 C 166.097656 85.5 173.816406 77.738281 184.898438 77.738281 L 185.375 77.738281 C 196.0625 77.957031 207.425781 91.460938 210.257812 91.460938 C 210.492188 91.460938 210.667969 91.367188 210.777344 91.175781 C 212.289062 88.617188 196.332031 74.839844 186.996094 73.820312 C 186.097656 73.710938 185.199219 73.667969 184.300781 73.667969 " fill-opacity="1" fill-rule="nonzero"/><g mask="url(#5567966043)"><g transform="matrix(1, 0, 0, 1, 204, 148)"><g clip-path="url(#e4f73ac1b6)"><g clip-path="url(#2aa33a311d)"><path fill="#004aad" d="M 0.664062 29.960938 C 0.746094 28.597656 0.839844 27.195312 0.949219 25.765625 C 0.800781 27.046875 0.691406 28.460938 0.664062 29.960938 Z M 1.628906 0.269531 C 1.621094 0.269531 1.613281 0.273438 1.601562 0.28125 C 1.617188 0.609375 1.628906 0.9375 1.65625 1.261719 C 1.65625 0.9375 1.644531 0.609375 1.628906 0.269531 Z M 1.628906 0.269531 " fill-opacity="1" fill-rule="nonzero"/></g></g></g></g><g mask="url(#49aaf34ecb)"><g transform="matrix(1, 0, 0, 1, 201, 126)"><g clip-path="url(#8ba3738fd6)"><g clip-path="url(#e845d44c48)"><path fill="#004aad" d="M 4.207031 17.191406 C 4.386719 18.839844 4.523438 20.539062 4.617188 22.28125 L 4.644531 22.28125 C 4.578125 20.59375 4.414062 18.894531 4.207031 17.191406 M 0.519531 0.214844 L 0.480469 0.214844 C 0.4375 0.214844 0.398438 0.230469 0.355469 0.230469 C 0.980469 2.367188 1.648438 4.722656 2.410156 7.308594 C 2.425781 7.347656 2.4375 7.375 2.4375 7.417969 C 1.636719 3.988281 0.847656 1.320312 0.519531 0.214844 " fill-opacity="1" fill-rule="nonzero"/></g></g></g></g><g mask="url(#81f576d35d)"><g transform="matrix(1, 0, 0, 1, 141, 88)"><g clip-path="url(#6f3ec6e491)"><g clip-path="url(#c396113c40)"><path fill="#004aad" d="M 105.199219 98.617188 C 103.835938 103 101.820312 106.675781 99.140625 109.386719 C 98.351562 110.175781 97.507812 110.882812 96.621094 111.507812 C 94.484375 113.007812 92.007812 113.984375 89.214844 114.367188 C 87.675781 114.585938 86.195312 114.679688 84.75 114.679688 C 82.628906 114.679688 80.613281 114.449219 78.734375 113.984375 C 77.523438 113.632812 76.277344 113.277344 75.050781 112.71875 C 73.648438 112.09375 72.429688 111.222656 71.328125 110.378906 C 67.570312 107.328125 64.984375 102.644531 63.992188 96.261719 C 63.691406 94.109375 63.609375 91.960938 63.652344 89.960938 C 63.730469 88.597656 63.828125 87.195312 63.9375 85.765625 C 64.535156 77.777344 65.367188 68.914062 64.65625 61.359375 L 64.65625 61.261719 C 64.65625 60.9375 64.644531 60.609375 64.628906 60.269531 C 64.5625 58.59375 64.441406 56.878906 64.207031 55.191406 C 63.703125 51.488281 63.175781 48.332031 62.4375 45.417969 C 62.042969 43.703125 61.648438 42.164062 61.308594 40.9375 C 60.96875 39.699219 60.695312 38.761719 60.519531 38.214844 C 60.410156 37.863281 60.03125 36.691406 60.042969 36.691406 C 47.316406 -4.203125 30.980469 17.578125 20.742188 42.761719 C 20.402344 42.992188 9.375 50.765625 0.226562 58.988281 C 0.226562 58.988281 18.644531 22.152344 25.25 12.488281 C 31.933594 2.453125 40.398438 -3.496094 50.59375 3.367188 C 58.710938 8.660156 65.257812 21.90625 68.46875 36.296875 C 69.53125 41.035156 70.226562 45.90625 70.496094 50.644531 C 70.675781 53.75 70.660156 56.933594 70.523438 60.09375 C 70.210938 66.964844 69.246094 73.707031 68.144531 79.164062 C 66.835938 85.628906 68.648438 92.394531 73.191406 97.175781 C 74.988281 99.066406 77.15625 100.589844 79.753906 101.40625 C 81.183594 101.855469 82.640625 102.074219 84.070312 102.074219 C 92.632812 102.074219 100.609375 94.546875 101.683594 86.011719 C 102.636719 78.414062 102.691406 71.417969 102.3125 65.359375 C 101.453125 51.625 98.609375 42.597656 98.664062 42.597656 L 99.097656 43.539062 C 100.472656 46.355469 101.414062 49.460938 102.476562 52.617188 C 103.535156 55.761719 105.753906 66.382812 106.042969 68 C 107.894531 78.605469 107.894531 89.292969 105.199219 98.617188 Z M 105.199219 98.617188 " fill-opacity="1" fill-rule="nonzero"/></g></g></g></g><g mask="url(#10372778d0)"><g transform="matrix(1, 0, 0, 1, 108, 143)"><g clip-path="url(#a9829cdd1c)"><g clip-path="url(#7e55627dca)"><path fill="#004aad" d="M 93.792969 0.246094 C 47.414062 11.421875 30.613281 49.292969 24.460938 59.203125 C 21.574219 63.847656 17.804688 66.390625 14.414062 66.390625 C 10.574219 66.390625 7.226562 63.109375 6.21875 55.867188 C 4.328125 42.253906 17.203125 25.292969 17.203125 25.292969 C 17.203125 25.292969 4.925781 38.539062 3.277344 43.5625 C 1.644531 48.585938 -0.015625 54.222656 0.898438 60.660156 C 1.863281 67.535156 6.519531 74.859375 14.414062 75.105469 C 14.632812 75.105469 14.835938 75.117188 15.039062 75.117188 C 30.722656 75.117188 31.5 57.71875 43.898438 41.765625 C 53.226562 29.785156 67.027344 20.882812 67.027344 20.882812 C 67.027344 20.882812 64.210938 23.0625 60.65625 26.574219 C 61.214844 26.070312 61.800781 25.550781 62.398438 25.035156 C 70.59375 17.355469 81.132812 10.589844 94.582031 6.167969 C 94.582031 6.113281 94.566406 5.992188 94.554688 5.8125 L 93.792969 0.246094 " fill-opacity="1" fill-rule="nonzero"/></g></g></g></g><g mask="url(#db3986fb1a)"><g transform="matrix(1, 0, 0, 1, 202, 148)"><g clip-path="url(#5713f120ca)"><g clip-path="url(#bea92c7777)"><path fill="#004aad" d="M 0.539062 0.8125 C 0.554688 1.003906 0.566406 1.125 0.566406 1.167969 L 0.566406 1.195312 L 0.582031 1.195312 L 0.539062 0.8125 " fill-opacity="1" fill-rule="nonzero"/></g></g></g></g><path fill="#97bcc7" d="M 137.621094 224.9375 C 135.332031 227.199219 132.761719 228.859375 130.039062 229.894531 C 133.058594 228.859375 135.550781 227.074219 137.621094 224.9375 M 108.527344 223.820312 C 109.863281 225.453125 111.457031 226.855469 113.28125 227.972656 C 113.035156 227.808594 110.570312 226.191406 108.527344 223.820312 M 146.480469 206.886719 C 146.128906 208.085938 145.800781 209.242188 145.527344 210.359375 C 145.433594 210.726562 145.339844 211.09375 145.230469 211.460938 C 145.871094 209.488281 146.265625 207.851562 146.480469 206.886719 M 158.953125 181.253906 C 155.699219 185.882812 153.097656 190.539062 151.015625 195.003906 C 152.894531 191.082031 155.480469 186.34375 158.953125 181.253906 " fill-opacity="1" fill-rule="nonzero"/><g mask="url(#06eace8513)"><g transform="matrix(1, 0, 0, 1, 103, 187)"><g clip-path="url(#7cb81110db)"><g clip-path="url(#0101ad861b)"><path fill="#004aad" d="M 1.335938 16.605469 C 1.171875 17.382812 1.050781 18.144531 0.941406 18.90625 C 1.050781 18.144531 1.1875 17.382812 1.335938 16.605469 M 7.84375 0.324219 C 6.835938 1.847656 4.5625 5.703125 2.683594 11.625 C 3.882812 7.960938 5.636719 4.164062 7.84375 0.324219 " fill-opacity="1" fill-rule="nonzero"/></g></g></g></g><g clip-path="url(#f31a7f3ae9)"><g mask="url(#abc7c0d083)"><g transform="matrix(1, 0, 0, 1, 102, 163)"><g clip-path="url(#ef9a52c88e)"><g clip-path="url(#80222cddfa)"><path fill="#004aad" d="M 73.027344 0.910156 C 72.945312 0.976562 70.15625 3.144531 66.65625 6.601562 C 64.140625 9.078125 61.253906 12.238281 58.707031 15.75 C 58.09375 16.59375 57.507812 17.4375 56.953125 18.253906 C 53.699219 22.867188 51.097656 27.539062 49.015625 32.003906 C 45.855469 38.605469 44.671875 42.933594 44.671875 42.933594 C 44.671875 42.933594 44.617188 43.273438 44.480469 43.886719 C 44.113281 45.085938 43.800781 46.242188 43.527344 47.359375 C 43.433594 47.726562 43.339844 48.09375 43.230469 48.460938 C 41.921875 52.464844 40.308594 57.332031 35.621094 61.9375 C 33.332031 64.199219 30.761719 65.871094 28.039062 66.894531 C 26.226562 67.519531 24.160156 68.125 21.957031 68.125 C 21.722656 68.125 21.492188 68.125 21.246094 68.109375 C 17.410156 67.972656 14.238281 66.960938 11.292969 64.972656 C 11.035156 64.808594 10.777344 64.632812 10.515625 64.441406 C 8.980469 63.339844 7.742188 62.347656 6.542969 60.820312 C 5.523438 59.527344 4.214844 57.949219 3.410156 55.933594 C 1.179688 50.339844 0.308594 42.59375 0.960938 37.53125 C 1.054688 36.765625 2.199219 41.382812 2.351562 40.605469 C 2.402344 40.332031 2.351562 39.9375 2.417969 39.667969 C 2.773438 38.183594 3.140625 36.875 3.546875 35.582031 C 4.757812 31.921875 6.636719 28.164062 8.84375 24.324219 C 9.117188 23.863281 9.25 23.601562 9.277344 23.574219 C 9.25 23.644531 9.101562 24.175781 8.800781 25.046875 C 7.820312 27.835938 5.996094 34.222656 6.898438 40.675781 C 7.863281 47.546875 12.519531 54.871094 20.414062 55.117188 C 20.617188 55.117188 20.835938 55.132812 21.039062 55.132812 C 36.710938 55.132812 37.5 37.734375 49.898438 21.777344 C 59.144531 9.894531 72.796875 1.019531 73.027344 0.910156 Z M 73.027344 0.910156 " fill-opacity="1" fill-rule="nonzero"/></g></g></g></g></g><g mask="url(#8504adfe79)"><g transform="matrix(1, 0, 0, 1, 117, 131)"><g clip-path="url(#9cd767002f)"><g clip-path="url(#9f06730105)"><path fill="#e3ebf2" d="M 69.449219 11.960938 C 60.480469 14.425781 47.601562 22.128906 36.640625 31.589844 C 27.550781 39.445312 23.289062 48.335938 19.871094 55.496094 C 18.195312 59.007812 16.742188 62.042969 14.996094 64.328125 C 12.765625 67.242188 10.179688 68.660156 7.117188 68.660156 C 6.652344 68.660156 6.175781 68.632812 5.699219 68.5625 C 3.5625 68.277344 1.914062 67.148438 1.058594 65.417969 C -1.242188 60.75 2.757812 53.03125 7.046875 45.53125 L 7.332031 45.027344 C 10.109375 40.152344 15.800781 33.589844 22.554688 27.4375 C 28.488281 22.035156 38.058594 14.410156 49.96875 8.789062 C 50.964844 8.324219 51.957031 7.835938 52.921875 7.371094 C 59.90625 3.996094 67.121094 0.511719 75.507812 0.457031 L 75.601562 0.457031 C 79.972656 0.457031 80.761719 2.796875 80.898438 3.804688 C 81.320312 7.003906 77.46875 9.753906 69.449219 11.960938 Z M 69.449219 11.960938 " fill-opacity="1" fill-rule="nonzero"/></g></g></g></g><g mask="url(#850792d62c)"><g transform="matrix(1, 0, 0, 1, 120, 132)"><g clip-path="url(#357ddd8187)"><g clip-path="url(#dd622c58a6)"><path fill="#e3ebf2" d="M 72.671875 0.953125 L 72.589844 0.953125 C 63.726562 1.023438 56.214844 5.242188 48.222656 9.027344 C 27.542969 18.789062 11.398438 36.074219 6.8125 44.136719 C 3.804688 49.417969 -3.984375 62.609375 3.164062 63.589844 C 3.53125 63.640625 3.871094 63.65625 4.210938 63.65625 C 13.945312 63.65625 13.386719 43.265625 31.941406 27.253906 C 42.382812 18.242188 55.722656 9.832031 65.824219 7.054688 C 75.613281 4.359375 77.558594 0.953125 72.671875 0.953125 " fill-opacity="1" fill-rule="nonzero"/></g></g></g></g><g mask="url(#bd88eb92f3)"><g transform="matrix(1, 0, 0, 1, 211, 121)"><g clip-path="url(#121381ede8)"><g clip-path="url(#40c5f829d1)"><path fill="#e3ebf2" d="M 28.636719 50.058594 C 27.5625 60.988281 21.164062 65.957031 14.710938 65.957031 C 8.257812 65.957031 2.363281 61.453125 0.632812 53.269531 C -0.128906 49.675781 1.371094 39.859375 2.472656 26.820312 C 3.058594 19.90625 3.519531 12.0625 3.492188 3.773438 C 3.492188 3.542969 3.492188 3.324219 3.507812 3.121094 C 3.617188 1.609375 4.132812 0.929688 4.964844 0.929688 C 5.914062 0.929688 7.277344 1.839844 8.855469 3.417969 C 13.375 7.953125 19.789062 18.054688 24.101562 28.546875 C 27.21875 36.160156 29.234375 43.984375 28.636719 50.058594 Z M 28.636719 50.058594 " fill-opacity="1" fill-rule="nonzero"/></g></g></g></g><g mask="url(#47c5a99fde)"><g transform="matrix(1, 0, 0, 1, 219, 147)"><g clip-path="url(#ad47eebcfb)"><g clip-path="url(#d0408667db)"><path fill="#e3ebf2" d="M 7.105469 2.996094 C 7.105469 2.996094 8.832031 9.207031 6.820312 19.863281 C 6.015625 24.097656 1.320312 27.011719 0.570312 30.699219 C -0.21875 34.539062 2.449219 36.621094 5.921875 36.621094 C 10.46875 36.621094 16.390625 33.015625 17.601562 25.011719 C 19.207031 14.460938 15.273438 5.789062 11.773438 1.472656 C 11.230469 0.804688 10.453125 0.355469 9.597656 0.25 C 9.570312 0.25 9.542969 0.234375 9.515625 0.234375 C 8.234375 0.0585938 7.089844 1.050781 7.089844 2.34375 Z M 7.105469 2.996094 " fill-opacity="1" fill-rule="nonzero"/></g></g></g></g><g clip-path="url(#0d6378c95b)"><path fill="#ffffff" d="M 214.152344 228.054688 C 215.347656 232.75 220.140625 237.3125 226.921875 239.066406 C 228.390625 239.410156 229.695312 239.558594 230.648438 239.613281 C 231.453125 239.652344 232.1875 239.679688 232.882812 239.679688 C 234.871094 239.679688 236.394531 239.503906 237.769531 239.21875 C 236.148438 239.488281 234.570312 239.625 233.074219 239.625 C 223.164062 239.625 215.867188 234.03125 214.152344 228.054688 " fill-opacity="1" fill-rule="nonzero"/></g><g clip-path="url(#72e9130b6b)"><g mask="url(#c35af5402f)"><g transform="matrix(1, 0, 0, 1, 213, 186)"><g clip-path="url(#cc8fa3c22f)"><g clip-path="url(#7867586244)"><path fill="#004aad" d="M 0.527344 33.273438 C 0.429688 33.984375 0.375 34.71875 0.335938 35.492188 C 0.28125 36.800781 0.335938 38.011719 0.484375 39.140625 C 0.648438 40.066406 0.867188 41.035156 1.167969 42.054688 C 0.269531 38.554688 0.226562 35.589844 0.527344 33.273438 M 59.210938 0.496094 C 58.285156 12.460938 51.644531 29.734375 37.933594 39.277344 C 33.332031 41.714844 28.242188 42.886719 23.476562 42.886719 C 13.839844 42.886719 5.46875 38.078125 4.882812 29.164062 C 4.488281 23.09375 9.375 20.96875 9.375 20.96875 C 9.375 20.96875 7.753906 21.566406 5.863281 23.078125 C 4.269531 24.371094 2.882812 26.074219 1.886719 28.265625 C 2.117188 27.761719 2.296875 27.503906 2.296875 27.503906 C 2.296875 27.503906 -0.359375 44.300781 20.566406 46.765625 C 20.917969 46.804688 21.300781 46.820312 21.707031 46.820312 C 26.132812 46.820312 33.703125 44.558594 37.023438 42.816406 C 48.796875 36.636719 54.910156 24.5625 56.667969 18.667969 L 58.300781 11.886719 C 58.449219 11.867188 59.457031 4.347656 59.210938 0.496094 " fill-opacity="1" fill-rule="nonzero"/></g></g></g></g></g><path fill="#eef8eb" d="M 214.898438 214.265625 C 214.476562 215.175781 213.824219 216.878906 213.523438 219.273438 C 213.769531 217.367188 214.246094 215.707031 214.898438 214.265625 " fill-opacity="1" fill-rule="nonzero"/><g clip-path="url(#9128c35801)"><g mask="url(#9f88ac5936)"><g transform="matrix(1, 0, 0, 1, 213, 204)"><g clip-path="url(#e6ba580a9d)"><g clip-path="url(#b3c4468ba2)"><path fill="#004aad" d="M 56.679688 0.652344 C 54.925781 6.5625 48.8125 18.636719 37.035156 24.804688 C 33.703125 26.546875 26.144531 28.804688 21.722656 28.804688 C 21.3125 28.804688 20.933594 28.792969 20.578125 28.75 C -0.34375 26.300781 2.308594 9.488281 2.308594 9.488281 C 2.308594 9.488281 2.144531 9.746094 1.902344 10.25 C 1.246094 11.695312 0.769531 13.355469 0.527344 15.261719 C 0.242188 17.574219 0.269531 20.542969 1.167969 24.054688 C 2.882812 30.03125 9.578125 35.847656 20.046875 35.703125 C 21.558594 35.683594 23.152344 35.488281 24.769531 35.21875 C 26.0625 34.945312 27.222656 34.589844 28.488281 34.195312 C 31.808594 33.175781 34.832031 31.789062 37.554688 30.058594 C 53.085938 19.644531 56.679688 0.652344 56.679688 0.652344 Z M 56.679688 0.652344 " fill-opacity="1" fill-rule="nonzero"/></g></g></g></g></g><g mask="url(#0e7ab5d121)"><g transform="matrix(1, 0, 0, 1, 222, 207)"><g clip-path="url(#768b2886a4)"><g clip-path="url(#8803b5441d)"><path fill="#e3ebf2" d="M 41.429688 0.894531 C 41.429688 0.894531 35.03125 6.242188 27.191406 6.242188 L 27.175781 6.242188 C 21.175781 6.242188 18.519531 3.847656 14.964844 2.570312 C 12.691406 1.75 10.121094 1.070312 7.75 1.070312 C 5.070312 1.070312 2.648438 1.941406 1.175781 4.460938 C -0.796875 7.878906 4.402344 14.808594 16.109375 14.808594 C 16.75 14.808594 17.417969 14.78125 18.109375 14.738281 C 27.339844 14.152344 36.082031 8.992188 41.429688 0.894531 " fill-opacity="1" fill-rule="nonzero"/></g></g></g></g><g mask="url(#8da28630ee)"><g transform="matrix(1, 0, 0, 1, 226, 211)"><g clip-path="url(#56c5b02868)"><g clip-path="url(#d9db10b050)"><path fill="#e3ebf2" d="M 16.5625 4.382812 C 16.5625 4.382812 13.636719 4.734375 8.804688 3.484375 C 6.882812 2.980469 5.714844 1.085938 4.050781 0.625 C 2.308594 0.148438 1.25 1.058594 1.113281 2.351562 C 0.933594 4.066406 2.378906 6.449219 6.027344 7.292969 C 10.832031 8.398438 14.96875 7.320312 17.09375 6.207031 C 17.421875 6.027344 17.652344 5.757812 17.746094 5.441406 C 17.746094 5.429688 17.746094 5.414062 17.761719 5.414062 C 17.898438 4.9375 17.476562 4.464844 16.875 4.410156 Z M 16.5625 4.382812 " fill-opacity="1" fill-rule="nonzero"/></g></g></g></g><g mask="url(#23dac34575)"><g transform="matrix(1, 0, 0, 1, 245, 146)"><g clip-path="url(#389fab4abb)"><g clip-path="url(#6b81e987c2)"><path fill="#004aad" d="M 24.148438 42.875 C 22.976562 31.414062 15.175781 17.269531 2.53125 8.394531 L 1.03125 0.566406 C 13.597656 10.421875 25.019531 24.1875 24.148438 42.875 Z M 24.148438 42.875 " fill-opacity="1" fill-rule="nonzero"/></g></g></g></g><path fill="#e3ebf2" d="M 245.21875 136.34375 C 245.257812 135.882812 267.910156 151.957031 270.863281 179.46875 C 264.683594 153.566406 251.261719 144.566406 247.503906 142.835938 C 246.851562 140.507812 246.046875 138.304688 245.21875 136.34375 Z M 245.21875 136.34375 " fill-opacity="1" fill-rule="evenodd"/><g fill="#3871c1" fill-opacity="1"><g transform="translate(101.32031, 281.177502)"><g/></g></g><g fill="#ffffff" fill-opacity="1"><g transform="translate(110.144529, 281.177502)"><g><path d="M 2.65625 -26.59375 L 14.09375 -26.59375 C 18.28125 -26.59375 21.679688 -25.363281 24.296875 -22.90625 C 26.921875 -20.457031 28.234375 -17.253906 28.234375 -13.296875 C 28.234375 -9.367188 26.898438 -6.171875 24.234375 -3.703125 C 21.578125 -1.234375 18.109375 0 13.828125 0 L 2.65625 0 Z M 9.421875 -21.203125 L 9.421875 -5.390625 L 14.25 -5.390625 C 16.320312 -5.390625 18.023438 -6.117188 19.359375 -7.578125 C 20.691406 -9.035156 21.359375 -10.929688 21.359375 -13.265625 C 21.359375 -15.597656 20.660156 -17.503906 19.265625 -18.984375 C 17.867188 -20.460938 16.097656 -21.203125 13.953125 -21.203125 Z M 9.421875 -21.203125 "/></g></g></g><g fill="#ffffff" fill-opacity="1"><g transform="translate(139.284572, 281.177502)"><g><path d="M 26.59375 -26.59375 L 26.59375 -11.171875 C 26.59375 -7.648438 25.503906 -4.859375 23.328125 -2.796875 C 21.148438 -0.734375 18.203125 0.296875 14.484375 0.296875 C 10.734375 0.296875 7.75 -0.734375 5.53125 -2.796875 C 3.3125 -4.859375 2.203125 -7.648438 2.203125 -11.171875 L 2.203125 -26.59375 L 8.96875 -26.59375 L 8.96875 -11.171875 C 8.96875 -9.398438 9.476562 -7.988281 10.5 -6.9375 C 11.53125 -5.882812 12.867188 -5.359375 14.515625 -5.359375 C 16.140625 -5.359375 17.4375 -5.875 18.40625 -6.90625 C 19.382812 -7.945312 19.875 -9.367188 19.875 -11.171875 L 19.875 -26.59375 Z M 26.59375 -26.59375 "/></g></g></g><g fill="#ffffff" fill-opacity="1"><g transform="translate(168.082688, 281.177502)"><g><path d="M 20.328125 -4.90625 L 8.703125 -4.90625 L 6.765625 0 L -0.1875 0 L 11.28125 -26.59375 L 18.234375 -26.59375 L 29.453125 0 L 22.234375 0 Z M 18.359375 -10.03125 L 14.546875 -19.875 L 10.671875 -10.03125 Z M 18.359375 -10.03125 "/></g></g></g><g fill="#ffffff" fill-opacity="1"><g transform="translate(197.336715, 281.177502)"><g><path d="M 18.703125 0 L 14.75 -7.484375 L 9.421875 -7.484375 L 9.421875 0 L 2.65625 0 L 2.65625 -26.59375 L 14.546875 -26.59375 C 18.078125 -26.59375 20.800781 -25.789062 22.71875 -24.1875 C 24.644531 -22.582031 25.609375 -20.296875 25.609375 -17.328125 C 25.609375 -13.222656 24 -10.375 20.78125 -8.78125 L 26.375 0 Z M 9.421875 -12.8125 L 14.546875 -12.8125 C 16.023438 -12.8125 17.164062 -13.175781 17.96875 -13.90625 C 18.78125 -14.644531 19.1875 -15.707031 19.1875 -17.09375 C 19.1875 -18.46875 18.78125 -19.507812 17.96875 -20.21875 C 17.164062 -20.925781 16.023438 -21.28125 14.546875 -21.28125 L 9.421875 -21.28125 Z M 9.421875 -12.8125 "/></g></g></g><g fill="#ffffff" fill-opacity="1"><g transform="translate(224.843091, 281.177502)"><g><path d="M 22.984375 -21.171875 L 14.96875 -21.171875 L 14.96875 0 L 8.203125 0 L 8.203125 -21.171875 L 0.265625 -21.171875 L 0.265625 -26.640625 L 22.984375 -26.640625 Z M 22.984375 -21.171875 "/></g></g></g><g fill="#ffffff" fill-opacity="1"><g transform="translate(248.056343, 281.177502)"><g><path d="M 23.484375 -21.28125 L 9.421875 -21.28125 L 9.421875 -16 L 22.109375 -16 L 22.109375 -10.671875 L 9.421875 -10.671875 L 9.421875 -5.3125 L 23.90625 -5.3125 L 23.90625 0 L 2.65625 0 L 2.65625 -26.59375 L 23.484375 -26.59375 Z M 23.484375 -21.28125 "/></g></g></g></svg>